<?xml version="1.0" encoding="UTF-8"?>
<svg id="Capa_1" data-name="Capa 1" xmlns="http://www.w3.org/2000/svg" viewBox="0 0 276.93 82.04">
  <path d="M99,41c0,35.8.2,41,1.5,41s1.5-5.2,1.5-41-.2-41-1.5-41-1.5,5.2-1.5,41Z" style="fill: #a0a603; stroke-width: 0px;"/>
  <path d="M72.5,10c3.96,3.35,6.84,8.32,6.5,4.5,0-2.4-8-10.5-10.3-10.5-1.7,0-1,1.1,3.8,6Z" style="fill: #a0a603; stroke-width: 0px;"/>
  <path d="M76,4.9c0,.6.5,1.3,1,1.6,1.52.69,1.1-2.72,0-2.5-.5,0-1,.4-1,.9Z" style="fill: #a0a603; stroke-width: 0px;"/>
  <path d="M65,7.6c0,1.3,8.8,9.9,9.5,9.3.99.06-9.42-10.77-9.5-9.3Z" style="fill: #a0a603; stroke-width: 0px;"/>
  <path d="M129.3,8.5c-5.1,4.27-3.57,13.03,3.7,14.5,9.5,1.91,1.57,11-1.7,5-.3-1.2-1.4-2-2.7-2-3.2,0-3.6.7-2.4,4.1,7.97,16.85,28.04-6.94,8.8-12.5-6.19-.7-1.29-7.78,1.6-3.1.4.8,1.7,1.5,3,1.5,7.48-1.35-4.09-13.11-10.3-7.5Z" style="fill: #a0a603; stroke-width: 0px;"/>
  <path d="M188,9.38l-2.3,2.5c2.85.71,10.53-2.75,11.3-4.6-1.89-.93-7.33-.4-9,2.1Z" style="fill: #a0a603; stroke-width: 0px;"/>
  <path d="M58,9.5c-1.5,1.8-.9,2.6,7,10.2,5.6,5.5,7.6,6.4,8.7,3.7,1.93-.93-13.21-15.62-13.8-15.4-.4,0-1.2.7-1.9,1.5Z" style="fill: #a0a603; stroke-width: 0px;"/>
  <path d="M151.6,16.2c-1.4,2.2-5.6,16.2-5.6,18.6.69,2,5.48,1.55,5.6-1.3,4.35-10.75,3.83,3.24,9,2.5,1.9,0,2.4-.4,2-1.8-4.28-14.34-6.21-24.64-11-18Z" style="fill: #a0a603; stroke-width: 0px;"/>
  <path d="M166,16.2c-.26,8.31,11.2-4.88-.1,14.5-2.2,4.1-.6,5.3,6.6,5.2,6.5-.1,6.6-.2,6.3-2.8.3-4.02-4.66-1.44-5.8-2.9,1.33-5.45,12.52-17.74-1.6-16-4.4.2-5.4.6-5.4,2Z" style="fill: #a0a603; stroke-width: 0px;"/>
  <path d="M186.1,16.9c-4.99,5.28-3.31,8.85-2.1,13.8,0,2.5,5.5,5.7,8.5,4.9,4.35-1.81,7.13-6.09,6.3-11.8-.38-7.28-7.33-13.11-12.7-6.9ZM193.2,22.5c2.72,5.83-5.2,12.39-5.2,1.6,0-4.8,3.3-5.8,5.2-1.6Z" style="fill: #a0a603; stroke-width: 0px;"/>
  <path d="M211.8,17.7l-.3,3.8c-4.57-10.07-10.86-9.37-9.3,7,.3,6.8.4,7,3.1,7.3,2.5.3,2.7.1,2.7-3.5l.1-3.8c1.89,2.96,3.56,9.3,7.3,6.9,1.3-.5,1.6-2.5,1.6-11q0-10.4-2.4-10.4c-2.1,0-2.5.5-2.8,3.7Z" style="fill: #a0a603; stroke-width: 0px;"/>
  <path d="M51,21.6c-4.89,5.11-10.64,8.69-16.2,11.7,23.79,23.47,6.65,12.25,32.1-7.8-1.82-1.97-8.9-9.29-9.9-9.5-.3,0-3,2.5-6,5.6Z" style="fill: #a0a603; stroke-width: 0px;"/>
  <path d="M38.5,43c14.49,14.06-.5-4.14-4.9-6-.6,0,1.6,2.7,4.9,6Z" style="fill: #a0a603; stroke-width: 0px;"/>
  <path d="M28,39.3c0,1.6,13.1,14.7,14.8,14.7,2.2,0,1.3-1.4-6-8.7s-8.8-8.4-8.8-6Z" style="fill: #a0a603; stroke-width: 0px;"/>
  <path d="M27,44.6c-.74.07,10.6,12.13,11,10.8.74-.07-10.6-12.13-11-10.8Z" style="fill: #a0a603; stroke-width: 0px;"/>
  <path d="M19,47.5l-2.4,2.6c3.86,3.77,11.53,11.44,15.3,15.3,1.38-1.28,5.13-4.47,5.1-5.9,0-1.4-13.2-14.5-14.6-14.5-.6,0-2.1,1.1-3.4,2.5Z" style="fill: #a0a603; stroke-width: 0px;"/>
  <path d="M128.5,50.88l-3,.5c-.15,5.11-.45,15.39-.6,20.5,0,0,4.9,0,4.9,0,15.13,1.62,13.57-25.13-1.3-21ZM133.8,57.2c1.6,1.6,1.5,6-.2,8.4-1.9,2.5-2.2,2-2.9-4.4-.6-5.3.4-6.7,3.1-4Z" style="fill: #a0a603; stroke-width: 0px;"/>
  <path d="M152,50.7c-6.8.6-8,2.3-8,10.8s1.4,10.5,8.3,10.5c4.3,0,4.7-.2,4.7-2.4s-.5-2.5-3.7-2.8c-4.1-.3-5.7-2.6-2.4-3.5,2.9-.7,3-5.3.1-5.3-3.8-.51-1.53-2.22,2-2,3.8,0,4-.2,4-3,0-1.7-.1-2.9-.2-2.8-.2.1-2.3.3-4.8.5Z" style="fill: #a0a603; stroke-width: 0px;"/>
  <path d="M190.2,61l.3,10.5,2.9.3c6.61,1.31,11.38-3.77,9.6-9.4-.6-1.5-1-3.4-.9-4.3,1.3-7.59-7-8.19-12.2-7.6l.3,10.5ZM197,57c.04,1.27-1.97,1.29-2,0,0-1.32,2.06-1.3,2,0ZM199,65c-.61,2.05-5.01,1.94-3.5-1,.6-1,3.5-.2,3.5,1Z" style="fill: #a0a603; stroke-width: 0px;"/>
  <path d="M207.7,50.6c-.98,1.74-1.41,19.04,1.6,19.2,2.8,2.7,6.7,2.8,9.6.4,1.9-1.5,2.2-2.9,2.4-10.4.3-9-.3-10.5-3.8-9.2-2.79-.44.16,21.28-4.5,14.9-2.12-1.24,1.09-16.09-2.5-15.3-1.2-.2-2.4,0-2.8.4Z" style="fill: #a0a603; stroke-width: 0px;"/>
  <path d="M232.8,51c-6.3.8-7.7,2.8-7.8,10.7,0,8.2,1.8,10.3,9,10.3,4.7,0,5-.2,5-2.5s-.4-2.5-4-2.5c-3.3,0-4-.3-4-2,0-1.1.7-2,1.5-2,1.97.27,1.97-5.27,0-5-3.24-.76-.68-2.2,2.5-2,3.6,0,4-.3,4-2.4,0-3.1-.5-3.3-6.2-2.6Z" style="fill: #a0a603; stroke-width: 0px;"/>
  <path d="M252.5,51.2c-.88,1.47-.11,9.39-2.8,3-1.4-2.5-2.4-3.2-4-3-2,.3-2.2,1-2.8,9.8-.4,5.2-.5,9.8-.2,10.2.2.5,1.5.8,2.9.8,3.41.73,2.17-5.04,2.5-7.5,1.32,2.23,3.57,8.37,6.2,7.3,2.1-.3,2.2-.8,2.5-11.1.3-10.2.2-10.7-1.8-10.7-1.1,0-2.3.6-2.5,1.2Z" style="fill: #a0a603; stroke-width: 0px;"/>
  <path d="M266.8,50.9c-8.57,3.32-6.35,20.66,1.8,21.1,12.11,1.16,10.59-25.22-1.8-21.1ZM270.8,57.2c1.7,1.7,1.5,6.4-.5,8.3-1.6,1.6-1.7,1.6-3-.1-2.72-3.51-.49-12.5,3.5-8.2Z" style="fill: #a0a603; stroke-width: 0px;"/>
  <path d="M162.01,52.48c-.8,2-.8,12.2,0,15,.7,2.7,4.4,4.4,9.4,4.4,3.6,0,4-.3,4-2.5s-.4-2.5-4-2.5h-4v-8c0-7.8-.1-8-2.4-8-1.3,0-2.7.7-3,1.6Z" style="fill: #a0a603; stroke-width: 0px;"/>
  <path d="M12.5,55.9c-.6,1.1.9,2.3,1.9,1.4,1.73-1.98-.75-3.15-1.9-1.4Z" style="fill: #a0a603; stroke-width: 0px;"/>
  <path d="M15.2,62.9c.71,2.52,3.25.32.8-.8-.7-.2-1.1.2-.8.8Z" style="fill: #a0a603; stroke-width: 0px;"/>
  <path d="M8.6,63.9c-.88,1.15,1.11,2.43,1.8,1.2.88-1.15-1.11-2.43-1.8-1.2Z" style="fill: #a0a603; stroke-width: 0px;"/>
  <path d="M21,66c.03,1.29,2.04,1.27,2,0,.06-1.3-1.99-1.32-2,0Z" style="fill: #a0a603; stroke-width: 0px;"/>
  <path d="M14,70c.03,1.29,2.04,1.27,2,0,.06-1.3-1.99-1.32-2,0Z" style="fill: #a0a603; stroke-width: 0px;"/>
  <path d="M27,70c0,1.27,3,1.27,3,0,.02-1.31-3.02-1.31-3,0Z" style="fill: #a0a603; stroke-width: 0px;"/>
  <path d="M4.6,71.9c-.88,1.15,1.11,2.43,1.8,1.2.88-1.15-1.11-2.43-1.8-1.2Z" style="fill: #a0a603; stroke-width: 0px;"/>
  <path d="M22,74c.03,1.29,2.04,1.27,2,0,.06-1.3-1.99-1.32-2,0Z" style="fill: #a0a603; stroke-width: 0px;"/>
  <path d="M10,75.6c.11,2.06,2.13.4,2-.7-.2-1.48-2.13-1-2,.7Z" style="fill: #a0a603; stroke-width: 0px;"/>
  <path d="M17,75.6c.11,2.06,2.13.4,2-.7-.2-1.48-2.13-1-2,.7Z" style="fill: #a0a603; stroke-width: 0px;"/>
  <path d="M7.6,79.9c-.4.7-.5,1.5-.2,1.8,2.16,1.87,1.68-4.72.2-1.8Z" style="fill: #a0a603; stroke-width: 0px;"/>
  <path d="M0,81c.14,2.6,4.51-.73,1.6-1-.9,0-1.6.4-1.6,1Z" style="fill: #a0a603; stroke-width: 0px;"/>
  <path d="M14,81c.03,1.29,2.04,1.27,2,0,.06-1.3-1.99-1.32-2,0Z" style="fill: #a0a603; stroke-width: 0px;"/>
  <path d="M21,81c.03,1.29,2.04,1.27,2,0,.06-1.3-1.99-1.32-2,0Z" style="fill: #a0a603; stroke-width: 0px;"/>
  <path d="M27.5,81c.5.98,2.41,1.56,2.5,0,.22-1.1-3.19-1.52-2.5,0Z" style="fill: #a0a603; stroke-width: 0px;"/>
</svg>