<?xml version="1.0" encoding="UTF-8"?>
<svg id="Capa_2" data-name="Capa 2" xmlns="http://www.w3.org/2000/svg" viewBox="0 0 651.67 191.03">
  <defs>
    <style>
      .cls-1 {
        stroke-width: 7px;
      }

      .cls-1, .cls-2, .cls-3 {
        fill: none;
        stroke: #231f20;
        stroke-linecap: round;
        stroke-linejoin: round;
      }

      .cls-2 {
        stroke-width: 6.35px;
      }

      .cls-3 {
        stroke-width: 7.82px;
      }

      .cls-4 {
        fill: #000;
        stroke-width: 0px;
      }
    </style>
  </defs>
  <g id="Capa_1-2" data-name="Capa 1">
    <g>
      <path class="cls-4" d="M187.03,92.93c-2.4-3.09-3.44-6.64-3.32-10.65.11-3.78,1.37-5.38,5.38-5.5,2.06-.11,6.18.11,12.48.46,3.32.11,4.24.8,4.58,2.29.11.23.11.46.11.69.11.92.23,3.43.34,3.78.34,1.26,1.15,1.95,2.18,1.95,1.49,0,2.41-.8,2.86-2.52.12-.46.23-2.52.23-6.07,0-2.52-1.26-3.89-3.66-4.01-3.89-.12-6.98-.34-9.39-.69-3.89-.57-7.1-1.95-9.73-4.12-4.24-3.78-6.3-9.96-6.07-18.66.11-6.07,1.83-10.88,4.92-14.66,4.35-5.15,11.11-7.67,20.15-7.67,4.81,0,8.82.57,12.14,1.72,8.36,2.98,10.42,10.19,10.42,15.92,0,1.72-.34,3.78-3.78,5.84-4.12,2.52-9.96,2.4-14.31,1.83-1.83-.34-2.4-.8-2.4-2.75,0-2.52,0-3.89-.11-4.12-.34-1.26-1.03-1.83-2.18-1.83-1.26,0-1.95.69-2.29,1.95-.11.46-.11,2.63-.11,6.41,0,1.37.34,2.4.92,3.09.57.69,2.4,1.14,5.5,1.49,1.03.11,2.52.11,4.24.23l2.98.23c4.69.23,8.24,2.06,10.76,5.5,2.41,3.09,3.55,7.67,3.55,13.63,0,7.9-1.37,13.05-6.53,18.09-4.12,3.78-10.08,5.84-17.98,6.07-10.42.34-17.75-2.29-21.87-7.9ZM288.47,79.53c0,8.36,0,13.63-.11,16.03-.11,3.32-.69,4.35-3.78,4.92-3.66.46-7.1.57-10.19.46,0,0-5.84-2.75-5.84-3.09v-.57c0-.69-.12-1.37-.57-1.37-.34,0-.92.34-1.49,1.03-1.03,1.03-2.06,1.72-3.21,2.29-1.95,1.15-4.46,1.72-7.21,1.72-4.58,0-8.13-1.26-10.76-3.89-5.15-4.69-7.79-13.17-7.79-25.42,0-11.45,1.83-19.81,5.38-24.96,2.52-3.55,5.95-5.5,10.3-5.84,2.75-.23,4.92.11,6.98,1.14l5.27,4.47c.34.23.57.11.8-.11.23-.34.34-.8.34-1.6,0-2.4,4.47-3.21,11.11-3.21,6.18,0,10.76,1.15,10.99,4.92.11,1.49-.23,18.32-.23,33.09ZM265.69,63.5c0-1.83-.46-4.35-2.17-4.58-2.29-.34-3.55,2.86-3.55,9.73,0,3.32.11,6.07.23,8.36l.34,3.32c.12.46.23,1.03.46,1.6.46,1.37,1.03,1.95,2.18,1.95,1.72-.12,2.52-1.6,2.52-4.35v-16.03ZM303.47,71.75l8.13-7.79c.92-.92,1.14-2.75-.46-2.75h-12.37c-1.95-.11-3.21-1.03-3.78-2.75-.34-1.03-.57-2.98-.69-5.61s0-4.58.23-5.84c.34-4.01,1.26-5.61,4.12-6.07,3.43-.46,10.08-.57,20.04-.34,9.04.34,14.08.69,15,.8,2.63.23,4.58.92,5.73,1.95,1.14,1.03,1.83,2.52,2.06,4.58.8,4.58.57,8.47-.69,11.68-.57,1.49-2.06,3.55-4.69,6.18-1.26,1.26-3.09,2.98-5.61,5.15l-5.15,4.7c-.11.11-.34.34-.57.46-1.83,1.26-2.4,2.52-1.83,3.55.23.57,1.14.69,2.86.57l6.87-.34h4.58s3.32,4.24,3.21,7.9c0,1.6-.11,3.21-.23,5.04-.11,2.29-.23,5.04-2.29,6.53-.69.46-2.52,1.03-5.61,1.6-1.49.11-6.41.34-14.77.46-8.59,0-14.31-.8-16.95-2.29-2.75-1.49-4.69-3.66-5.95-6.76-1.15-2.86-1.6-5.5-1.37-7.9.11-1.95.8-3.55,1.83-4.58,2.18-2.18,4.92-4.92,8.36-8.13ZM354.08,47.36c5.15-4.69,11.79-6.98,20.15-6.98,7.67.11,13.74,2.17,18.32,5.95,6.07,5.15,9.05,13.17,8.93,24.04,0,10.65-2.86,18.66-8.47,23.82-5.15,4.58-11.91,6.87-20.27,6.87-8.13-.11-14.54-2.4-19.35-6.98-5.38-5.15-8.13-12.82-8.13-23.01s2.98-18.44,8.82-23.7ZM371.03,16.33c1.49-1.26,4.7-4.24,5.5-4.81,3.21-2.63,4.35-2.75,7.56,0,2.52,2.52,4.24,4.69,5.04,6.41.57,1.49-.12,3.09-2.06,4.92-1.37,1.26-3.66,3.32-6.87,6.07-2.86,2.63-5.84,5.04-8.93,7.33-1.72,1.49-3.44,1.72-4.92.69-1.72-1.03-3.32-2.86-5.04-5.27-2.06-2.75-1.95-5.04.23-6.99,2.86-2.75,5.96-5.5,9.5-8.36ZM373.09,83.2c2.75,0,4.01-3.21,4.24-7.1,0-2.18.11-2.98.11-5.04-.11-1.03-.11-1.6-.11-1.72,0-7.33-1.26-10.88-3.89-10.76-4.69.23-4.01,10.99-4.12,14.43,0,6.64,1.26,10.08,3.78,10.19ZM417.63,40.83c4.24.23,6.53.69,7.56,6.53.8,4.47.8,8.59,1.49,8.59.8,0,1.49-3.55,2.75-6.07,3.21-6.53,7.1-8.59,16.03-8.82,11.11-.23,15,8.24,15,21.07v8.59c0,3.21-.12,8.13-.23,14.88-.11,6.87-.8,10.99-1.83,12.48-1.26,1.95-3.09,2.52-5.04,2.75-1.26.11-3.32.23-4.69.23-3.89,0-6.41-.23-7.67-.57-1.72-.34-2.86-1.03-3.43-2.06-.8-1.03-1.15-2.63-1.15-5.04v-24.39c0-5.61.11-10.76-3.66-9.85-1.95.46-2.4,2.63-2.4,4.69v22.33c0,6.64-.46,10.65-1.26,11.91-1.03,1.72-3.66,2.63-8.01,2.86-3.78.34-7.44.11-10.88-.46-3.32-.57-4.01-1.37-4.01-4.92v-7.1c0-3.55-.11-6.41-.11-8.59,0-23.24.11-28.85.11-34.01,0-4.35,6.64-5.27,11.45-5.04ZM237.41,127.72c-.12,7.1-.12,17.75-.12,32.06,0,8.36,0,13.62-.11,16.03-.11,3.32-.8,4.35-4.01,4.92-4.01.46-7.56.57-10.88.46h-.11c-2.29-.11-6.07-2.75-6.07-3.09v-.57c0-.69-.23-1.37-.69-1.37-.34,0-.92.34-1.6,1.03-1.03,1.03-2.18,1.72-3.32,2.29-2.18,1.14-4.81,1.72-7.79,1.72-4.81,0-8.59-1.26-11.45-3.89-5.5-4.69-8.24-13.17-8.24-25.42,0-11.45,1.95-19.81,5.73-24.96,2.63-3.55,6.3-5.5,10.99-5.84,2.86-.23,5.27.11,7.44,1.15,1.37.57,2.98,1.83,4.92,3.78.69.8,1.14,1.03,1.49.57.23-.34.34-1.37.34-3.32v-10.08c.11-1.72,1.14-3.09,3.21-4.01,1.72-.8,4.58-1.26,8.7-1.26,3.66.12,6.75.69,9.16,1.49,1.49.57,2.4,1.72,2.52,3.43.23,2.29.23,7.21-.11,14.89ZM213.02,143.75c0-1.03-.12-1.95-.46-2.63-.23-1.26-.8-1.83-1.83-1.95-2.52-.34-3.78,2.86-3.78,9.73,0,3.32.11,6.07.23,8.36l.34,3.32c.11.46.23,1.03.46,1.6.46,1.37,1.15,1.95,2.4,1.95,1.72-.11,2.63-1.6,2.63-4.35v-16.03ZM242.22,151.31c0-19.69,10.65-31.03,28.85-30.46,15.23,0,25.19,8.13,24.85,21.64-.11,5.61-1.14,8.93-3.09,9.73-2.17.8-10.65,1.15-25.3.92-.8,0-1.26.46-1.37,1.26v2.18c.34,5.15,1.37,6.64,3.32,6.53,1.83,0,2.75-3.09,2.75-4.35.34-1.72,1.14-2.52,4.69-2.63,2.86-.12,6.75-.12,11.91,0,4.24.23,6.3.46,6.3,4.12-.46,14.2-11.11,21.18-26.56,20.95-17.63-.46-26.34-11.68-26.34-29.88ZM271.76,140.54c.12-2.63-.57-3.89-2.29-4.01-1.95-.11-2.86,1.37-2.98,3.55-.11,1.26-.46,4.58.92,4.58,2.52.23,4.01-.23,4.35-1.26v-2.86ZM303.01,109.05c2.29-.8,5.38-1.15,9.28-1.15,3.43,0,5.95.23,7.56.57,3.21.8,4.81,2.29,4.81,4.69v10.99c0,1.49,0,3.78-.11,6.76-.11,3.09-.11,5.27-.11,6.75-.11,9.28-.23,16.26-.23,20.73s0,7.79-.12,10.42l-.34,6.64c-.34,3.78-1.37,5.15-5.04,5.5-1.26.11-3.44.11-6.53.11s-5.72-.11-7.67-.46c-3.32-.46-4.12-1.26-4.12-4.81-.12-1.95-.12-5.61-.12-11.22v-15.92c-.11-5.95-.11-12.94,0-20.72v-8.01c0-3.66,0-6.07.12-7.1,0-1.83.92-3.09,2.63-3.78ZM350.99,112.83c.12-1.72,1.03-2.86,2.63-3.43,2.29-.8,5.27-1.37,9.05-1.49,4.12,0,6.98.46,8.59,1.26,2.06.92,3.09,2.29,3.09,4.01v11.34c0,1.37.11,2.17.46,2.29.34.23.92,0,1.6-.69,3.55-3.66,8.02-5.38,13.4-5.04,4.47.34,8.02,2.18,10.65,5.5,3.32,4.47,5.04,12.48,5.04,24.05,0,6.41-1.03,12.59-3.66,19.24-2.63,6.64-8.36,11.22-16.03,11.22-4.24,0-7.56-1.03-9.96-3.09-1.49-1.26-2.4-1.83-2.86-1.83-.69,0-.46,1.15-.8,2.41-.34,1.49-2.4,2.4-6.07,2.63-3.32.23-6.87.12-10.88-.46-3.21-.57-3.78-1.37-3.89-4.92-.11-1.26-.11-6.53-.11-16.03-.11-3.55-.11-8.82-.11-16.03-.12-7.21-.12-12.48-.12-16.03v-14.89ZM375.38,159.78c.11,2.75.46,4.24,2.63,4.35,1.49.11,2.4-1.14,2.86-2.98.46-1.95.69-5.73.69-11.11,0-3.32-.11-5.61-.46-6.87-.57-3.09-1.6-4.35-3.32-4.01-.8.11-1.49.69-2.06,1.95-.11.57-.23,1.37-.23,2.63-.11,6.75-.23,12.14-.11,16.03ZM461.6,180.27c-2.4.8-5.38,1.26-8.7,1.26-4.12,0-6.98-.34-8.59-1.03-1.26-.57-2.18-1.49-2.86-2.86-.34-.57-.57-1.95-.69-2.06-.23-.57-.8-.34-1.6.69-1.37,1.37-2.86,2.4-4.47,3.21-2.86,1.37-6.07,1.95-9.62,1.83-4.69-.46-8.24-2.29-10.76-5.5-1.37-1.83-2.41-4.47-3.09-7.79-.69-3.32-1.03-5.95-1.03-7.79-.12-1.83-.12-4.7-.12-8.59,0-8.36,0-13.4.12-15.11.11-6.98.69-11.11,1.72-12.48,1.26-1.95,3.09-2.52,5.27-2.75,1.37-.12,3.32-.23,4.69-.23,4.01,0,6.53.11,7.67.46,3.09.8,4.58,2.29,4.58,7.21v24.62c0,4.12.23,6.75.57,7.79.57,1.6,1.6,2.29,3.09,1.95,1.03-.11,1.72-.69,2.06-1.95.11-.57.34-2.52.34-2.63.11-2.52.11-6.3,0-11.34-.11-4.92-.11-8.7,0-11.22,0-6.64.46-10.65,1.26-11.91,1.03-1.72,3.66-2.63,8.01-2.86,3.32-.34,6.64-.23,9.73.23,4.12.57,4.81,1.49,5.15,5.95v6.76c0,3.32,0,6.07.11,8.36,0,11.56,0,20.15.12,25.99,0,3.66-.12,6.3-.23,8.01,0,1.83-.92,3.09-2.75,3.78ZM468.92,151.31c0-19.69,10.65-31.03,28.85-30.46,15.23,0,25.19,8.13,24.85,21.64-.11,5.61-1.14,8.93-3.09,9.73-2.17.8-10.65,1.15-25.3.92-.8,0-1.26.46-1.37,1.26v2.18c.34,5.15,1.37,6.64,3.32,6.53,1.83,0,2.75-3.09,2.75-4.35.34-1.72,1.14-2.52,4.69-2.63,2.86-.12,6.75-.12,11.91,0,4.24.23,6.3.46,6.3,4.12-.46,14.2-11.11,21.18-26.56,20.95-17.63-.46-26.34-11.68-26.34-29.88ZM498.47,140.54c.12-2.63-.57-3.89-2.29-4.01-1.95-.11-2.86,1.37-2.98,3.55-.11,1.26-.46,4.58.92,4.58,2.52.23,4.01-.23,4.35-1.26v-2.86ZM538.54,121.08c4.24.23,6.53.69,7.56,6.53.8,4.47.8,8.59,1.49,8.59.8,0,1.49-3.55,2.75-6.07,3.21-6.53,7.1-8.59,16.03-8.82,11.11-.23,15,8.24,15,21.07v8.59c0,3.21-.12,8.13-.23,14.89-.11,6.87-.8,10.99-1.83,12.48-1.26,1.95-3.09,2.52-5.04,2.75-1.26.11-3.32.23-4.69.23-3.89,0-6.41-.23-7.67-.57-1.72-.34-2.86-1.03-3.43-2.06-.8-1.03-1.15-2.63-1.15-5.04v-24.39c0-5.61.11-10.76-3.66-9.85-1.95.46-2.4,2.63-2.4,4.69v22.33c0,6.64-.46,10.65-1.26,11.91-1.03,1.72-3.66,2.63-8.01,2.86-3.78.34-7.44.12-10.88-.46-3.32-.57-4.01-1.37-4.01-4.92v-7.1c0-3.55-.11-6.41-.11-8.59,0-23.24.11-28.85.11-34.01,0-4.35,6.64-5.27,11.45-5.04ZM594.76,127.6c5.15-4.69,11.79-6.98,20.15-6.98,7.67.11,13.74,2.18,18.32,5.95,6.07,5.15,9.05,13.17,8.93,24.05,0,10.65-2.86,18.66-8.47,23.82-5.15,4.58-11.91,6.87-20.27,6.87-8.13-.12-14.54-2.41-19.35-6.99-5.38-5.15-8.13-12.82-8.13-23.01s2.98-18.43,8.82-23.7ZM613.77,163.44c2.75,0,4.01-2.63,4.24-6.53v-6.75c0-7.33-1.26-11.45-3.89-11.34-4.7.23-4.01,10.99-4.12,14.43,0,6.64,1.26,10.08,3.78,10.19Z"/>
      <g>
        <rect class="cls-3" x="43.23" y="36.19" width="63.85" height="19.41" rx="3.95" ry="3.95" transform="translate(29.43 -29.36) rotate(27.3)"/>
        <path class="cls-3" d="M99.35,47.46l1.26-2.58c5.28-10.82.95-23.87-9.75-29.4h0c-10.7-5.52-23.85-1.49-29.61,9.08l-1.37,2.52"/>
        <path class="cls-3" d="M88.02,63.46s-10.25,9.34-12.98,25.15c-1.64,9.5-1.72,16.55-1.51,20.65.15,2.97-.52,5.92-1.89,8.57l-4.08,7.9c-1.37,2.65-4.62,3.69-7.27,2.32l-43.5-22.46c-2.65-1.37-3.69-4.62-2.32-7.27l4.08-7.9c1.37-2.65,3.38-4.9,5.89-6.5,3.47-2.21,9.17-6.35,15.96-13.19,11.3-11.39,12.98-25.15,12.98-25.15"/>
        <rect class="cls-3" x="4.24" y="115.76" width="59.75" height="19.28" rx="2.2" ry="2.2" transform="translate(61.32 -1.68) rotate(27.3)"/>
        <line class="cls-2" x1="41.94" y1="165.52" x2="41.94" y2="165.52"/>
        <line class="cls-2" x1="25.36" y1="155.82" x2="25.36" y2="155.82"/>
        <line class="cls-2" x1="10.58" y1="147.06" x2="10.58" y2="147.06"/>
        <line class="cls-2" x1="17.52" y1="168.81" x2="17.52" y2="168.81"/>
        <line class="cls-2" x1="30.94" y1="178.02" x2="30.94" y2="178.02"/>
      </g>
      <line class="cls-1" x1="140.61" y1="53.02" x2="140.61" y2="139.02"/>
    </g>
  </g>
</svg>